HIERARCHY
ROOT Hips
{
	OFFSET -44.602631 92.727097 387.457703
	CHANNELS 6 Xposition Yposition Zposition Zrotation Yrotation Xrotation 
	JOINT RightUpLeg
	{
		OFFSET 0.103457 1.857834 10.548504
		CHANNELS 3 Xrotation Yrotation Zrotation
		JOINT RightLeg
		{
			OFFSET 43.499996 -0.000046 0.000000
			CHANNELS 3 Xrotation Yrotation Zrotation
			JOINT RightFoot
			{
				OFFSET 42.372192 0.000027 0.000002
				CHANNELS 3 Xrotation Yrotation Zrotation
				JOINT RightToe
				{
					OFFSET 17.299994 -0.000003 -0.000001
					CHANNELS 3 Xrotation Yrotation Zrotation
					End Site
					{
						OFFSET 0.000000 0.000000 0.000000
					}
				}
			}
		}
	}
	JOINT LeftUpLeg
	{
		OFFSET 0.103456 1.857832 -10.548504
		CHANNELS 3 Xrotation Yrotation Zrotation
		JOINT LeftLeg
		{
			OFFSET 43.500046 -0.000011 0.000010
			CHANNELS 3 Xrotation Yrotation Zrotation
			JOINT LeftFoot
			{
				OFFSET 42.372261 -0.000034 0.000021
				CHANNELS 3 Xrotation Yrotation Zrotation
				JOINT LeftToe
				{
					OFFSET 17.300011 0.000001 0.000002
					CHANNELS 3 Xrotation Yrotation Zrotation
					End Site
					{
						OFFSET 0.000000 0.000000 0.000000
					}
				}
			}
		}
	}
	JOINT Spine
	{
		OFFSET 6.901965 -2.603721 0.000001
		CHANNELS 3 Xrotation Yrotation Zrotation
		JOINT Spine1
		{
			OFFSET 12.588100 0.000000 -0.000000
			CHANNELS 3 Xrotation Yrotation Zrotation
			JOINT Spine2
			{
				OFFSET 12.343206 0.000005 0.000000
				CHANNELS 3 Xrotation Yrotation Zrotation
				JOINT Neck
				{
					OFFSET 25.832893 -0.000008 0.000000
					CHANNELS 3 Xrotation Yrotation Zrotation
					JOINT Head
					{
						OFFSET 11.766617 0.000009 0.000001
						CHANNELS 3 Xrotation Yrotation Zrotation
						End Site
						{
							OFFSET 0.000000 0.000000 0.000000
						}
					}
				}
				JOINT RightShoulder
				{
					OFFSET 19.745899 -1.480394 6.000106
					CHANNELS 3 Xrotation Yrotation Zrotation
					JOINT RightArm
					{
						OFFSET 11.284122 -0.000030 -0.000014
						CHANNELS 3 Xrotation Yrotation Zrotation
						JOINT RightForeArm
						{
							OFFSET 33.000050 0.000020 0.000016
							CHANNELS 3 Xrotation Yrotation Zrotation
							JOINT RightHand
							{
								OFFSET 25.200014 -0.000003 0.000011
								CHANNELS 3 Xrotation Yrotation Zrotation
								End Site
								{
									OFFSET 0.000000 0.000000 0.000000
								}
							}
						}
					}
				}
				JOINT LeftShoulder
				{
					OFFSET 19.746094 -1.480381 -6.000073
					CHANNELS 3 Xrotation Yrotation Zrotation
					JOINT LeftArm
					{
						OFFSET 11.284140 -0.000016 -0.000006
						CHANNELS 3 Xrotation Yrotation Zrotation
						JOINT LeftForeArm
						{
							OFFSET 33.000088 0.000015 0.000002
							CHANNELS 3 Xrotation Yrotation Zrotation
							JOINT LeftHand
							{
								OFFSET 25.199776 0.000133 0.000416
								CHANNELS 3 Xrotation Yrotation Zrotation
								End Site
								{
									OFFSET 0.000000 0.000000 0.000000
								}
							}
						}
					}
				}
			}
		}
	}
}
MOTION
Frames: 14
Frame Time: 0.033333
73.395844 92.348778 197.867294 97.259373 9.826817 -63.424993 157.339418 3.410008 167.055212 -51.286244 -2.308552 -4.641868 67.115754 3.941204 1.430429 21.454553 0.003104 0.000015 135.373967 4.049695 -175.597443 -62.607037 -1.687136 -0.366485 72.889347 3.225086 9.221590 21.454551 -0.003098 0.000001 14.028951 -0.220666 -1.302642 18.047810 -0.235169 -2.623669 17.730073 -0.251145 -2.622217 -9.757128 1.794750 8.368397 -28.595427 -6.580131 12.377262 100.559011 -69.850746 79.703848 -33.175171 39.701253 6.048545 -44.926867 -22.898407 2.145576 14.365206 -2.120688 17.953478 140.908005 78.206240 -38.283439 -16.732845 -46.327500 -4.365742 -104.423497 0.010883 -2.946267 12.048943 -5.228129 -29.715640 
70.016586 93.488113 192.428207 96.874076 10.013351 -61.179022 160.700527 3.618796 168.886659 -50.623900 -2.522094 -2.999243 61.819639 1.324353 -2.324520 21.454555 0.003102 0.000019 134.960098 3.611490 -176.215370 -53.534924 -0.927638 1.084434 71.015785 4.180469 14.942120 21.454557 -0.003101 0.000002 13.627920 0.010104 -1.427591 17.240139 0.233104 -2.837613 16.922463 0.215835 -2.838976 -9.047442 2.463315 8.164498 -29.376992 -7.711010 13.051739 102.587918 -70.838631 77.579993 -27.381260 44.127212 9.409160 -44.521123 -23.240866 2.156003 14.789793 -0.446151 16.662747 146.480947 79.054392 -32.580002 -6.409543 -48.452819 -11.698934 -105.446407 -0.323622 -2.967941 14.050950 -8.280632 -24.673746 
66.543251 93.420982 186.954803 95.954978 10.116272 -58.892029 163.648518 3.660790 169.388719 -52.780847 -2.561203 -1.657775 60.756937 -1.415728 -6.389616 21.454555 0.003107 0.000019 134.697532 4.122891 -176.506268 -45.748812 -0.819879 0.518723 70.320581 5.099111 16.174335 21.454553 -0.003083 -0.000004 13.279148 0.127861 -1.499716 16.539510 0.469077 -2.965614 16.221870 0.451019 -2.968403 -9.249881 3.007080 7.769426 -28.542814 -8.715323 13.257127 103.989070 -71.498174 76.114180 -20.643664 47.173074 14.445862 -44.873762 -23.108781 2.158006 13.259283 -0.499608 14.165030 148.080031 79.340208 -30.941116 5.192207 -49.704253 -18.577102 -105.756101 -0.569252 -2.964463 11.492396 -11.507031 -19.637318 
63.052349 91.999939 181.540100 94.973815 9.349853 -55.811036 166.058168 3.825387 171.025369 -58.132751 -2.000279 -0.974182 62.081461 -3.722756 -10.863860 21.454553 0.003108 0.000012 135.248455 4.899599 -176.793969 -40.799691 -0.370850 0.936978 69.615870 5.819930 18.929565 21.454553 -0.003093 0.000003 13.104829 0.344852 -1.583686 16.184984 0.908124 -3.103444 15.867359 0.889239 -3.108875 -9.931878 3.699555 7.322159 -27.490456 -9.431254 13.295971 101.621392 -72.560562 78.377677 -15.445332 49.784252 20.044983 -44.599308 -23.067866 2.146832 12.790978 -1.357171 11.121488 152.240286 80.716211 -26.641209 12.723206 -50.657724 -24.035185 -104.916302 -0.277484 -2.947884 8.186295 -10.008228 -14.156709 
59.743210 89.808182 176.466797 93.955987 8.095419 -51.869020 167.665599 3.503299 174.136807 -65.471571 -2.800915 -0.859301 65.647011 -3.501494 -11.083251 21.454563 0.003108 0.000019 136.231251 6.321700 -176.155824 -41.258813 0.431341 2.961961 68.575543 4.091575 17.870652 21.454553 -0.003087 0.000001 13.056310 0.619966 -1.735538 16.079331 1.475381 -3.368057 15.761715 1.454898 -3.376905 -9.703970 5.206074 6.713530 -27.953101 -10.377584 13.757989 96.293817 -72.896471 83.661027 -10.808289 51.971688 24.625421 -43.914080 -23.063235 2.125677 11.901215 -2.126175 8.340635 158.081614 81.069633 -20.709178 14.732797 -49.829293 -25.765208 -102.964002 -0.009007 -2.880569 5.514567 -6.575619 -9.741433 
56.922039 86.831009 171.632996 93.500597 5.601414 -47.053952 167.419439 1.196703 173.912490 -75.716834 -1.152229 -1.802129 69.494689 -1.849041 -9.255108 21.454560 0.003108 0.000014 137.813902 6.754703 -172.453643 -51.258941 0.111952 5.288624 78.105856 -1.358648 9.443181 21.454553 -0.003098 -0.000000 13.087667 1.218058 -1.814913 16.126454 2.677401 -3.442822 15.808620 2.656440 -3.458920 -8.408653 5.993447 5.458505 -27.457169 -11.550705 13.226906 93.576139 -72.146803 86.439493 -6.484970 52.347383 28.925349 -43.889235 -22.800404 2.107409 10.361146 -2.974844 9.457281 161.886152 81.069018 -16.857033 12.932742 -47.920228 -24.163343 -100.802404 0.369964 -2.811333 5.956830 -5.253494 -5.955029 
54.096539 83.781700 166.977097 92.632842 3.589262 -42.904052 165.128347 -1.064404 171.910370 -86.291845 1.514488 -4.377830 73.334792 0.445262 -8.597955 21.454558 0.003108 0.000017 139.954947 7.933596 -167.404713 -60.710191 -1.944432 5.794767 88.105048 -2.599317 8.313023 21.454551 -0.003100 -0.000000 13.167546 1.706968 -1.786053 16.277428 3.648375 -3.315237 15.959230 3.628157 -3.337220 -7.062534 5.671379 4.342872 -28.677061 -11.993096 12.307985 92.862904 -71.610886 87.200397 -4.354567 51.379603 30.340441 -45.234567 -21.780158 2.080454 7.958571 -3.429203 12.169038 160.147596 79.612794 -18.692098 8.295136 -44.699674 -19.030437 -96.893569 1.012744 -2.682525 6.124825 -4.609225 -2.535955 
51.253571 81.993088 162.881699 92.460360 2.958792 -39.704948 159.681736 -2.211390 170.181567 -93.720222 3.173984 -7.608678 75.130298 3.626751 -5.790211 21.454568 0.003108 0.000015 142.336771 8.945202 -164.188131 -66.101772 -2.975974 6.407571 94.796257 -3.305468 9.298003 21.454550 -0.003092 0.000001 13.120105 2.007211 -1.582178 16.185243 4.216073 -2.869228 15.866642 4.198538 -2.894655 -7.757797 5.032378 3.682770 -27.918586 -11.784489 11.224718 97.810918 -71.201505 82.313403 -5.095848 48.670822 28.010474 -46.831998 -21.055561 2.081984 5.642780 -4.938523 15.080417 158.353688 78.280620 -20.583817 0.232043 -42.016800 -14.219990 -90.303324 4.517581 -2.634495 6.857279 -3.033951 -1.949008 
48.130520 81.627792 159.495895 91.747568 3.033916 -37.547975 153.692698 -1.708299 168.582265 -97.146375 3.551793 -9.986243 77.663055 5.945663 -3.670823 21.454568 0.003110 0.000016 145.955146 10.133896 -163.143918 -67.985203 -2.955485 6.680454 98.004267 -3.585173 10.811494 21.454553 -0.003095 -0.000001 13.195393 1.933757 -1.245766 16.349062 4.024157 -2.206503 16.030370 4.010630 -2.230799 -7.501242 4.173857 2.934864 -27.941085 -11.364363 9.944832 102.023389 -70.944362 78.133929 -7.830420 46.804104 22.561505 -48.805605 -20.498774 2.108191 4.308216 -6.890458 18.630576 153.242042 78.571709 -25.757695 -9.833648 -42.929341 -9.692826 -81.909923 11.158948 -2.730143 8.972619 -2.344136 -5.740842 
44.763851 82.548508 156.325195 91.422137 3.062291 -35.949953 147.951118 -1.087291 168.165336 -96.203365 2.980790 -9.927044 79.725356 5.858401 -4.164370 21.454557 0.003108 0.000015 150.788024 10.621800 -162.095511 -66.466340 -2.718039 6.547683 98.309180 -3.398707 12.245057 21.454550 -0.003088 0.000000 13.255369 1.764720 -0.835276 16.483649 3.630448 -1.410804 16.164959 3.621724 -1.432745 -7.015961 3.097291 2.302816 -27.909686 -11.053938 8.747025 104.653873 -70.419571 75.554678 -10.290554 46.656114 16.949637 -51.566641 -21.189900 2.247373 4.588959 -9.202115 20.706306 145.101836 78.553821 -34.011678 -17.547261 -44.133377 -2.261865 -76.153331 14.648597 -2.726221 10.157337 -0.571232 -17.131016 
41.039490 84.682678 153.317001 91.685270 3.558903 -35.251952 142.649894 -0.425598 168.168396 -91.363520 1.322077 -9.191281 79.367952 5.435176 -4.089201 21.454558 0.003109 0.000018 155.534759 10.260597 -162.148705 -62.219731 -2.677999 6.413774 95.120882 -2.798393 14.097035 21.454557 -0.003108 0.000001 13.193627 1.384139 -0.388559 16.372235 2.809307 -0.577187 16.053723 2.805627 -0.594167 -8.092289 2.588486 1.307818 -26.693785 -11.279405 7.530218 104.781133 -70.999188 75.370755 -13.910966 48.120042 11.352477 -54.527634 -21.222682 2.353856 5.176706 -13.272314 20.875259 137.443050 79.004614 -41.726012 -25.481221 -46.456146 6.532645 -73.598300 17.210192 -2.798010 10.161873 1.021606 -27.416092 
36.889130 87.906616 150.018799 92.420656 3.691679 -34.374020 139.254607 -0.074493 169.483385 -82.979285 -1.039552 -8.224232 77.384944 4.597629 -4.906343 21.454560 0.003109 0.000017 161.403749 9.626696 -162.412486 -55.297587 -1.415469 5.844855 88.080808 -1.469901 15.122652 21.454553 -0.003096 -0.000001 13.068886 1.064745 -0.078329 16.127651 2.129973 -0.007264 15.809298 2.129764 -0.020150 -7.760100 2.048927 0.468263 -27.550046 -10.070106 6.003326 107.849889 -70.957579 72.300797 -15.729535 49.271882 8.381484 -57.478125 -21.389526 2.473887 5.370166 -16.442395 19.983715 134.702327 79.139995 -44.483195 -31.022723 -47.734078 12.680881 -74.078647 16.857421 -2.793508 8.499043 5.639108 -32.289989 
32.323051 91.213120 146.538696 93.620829 4.164748 -33.579963 137.305695 0.261195 169.918455 -72.323678 -2.577424 -7.243578 74.082841 3.105411 -7.488873 21.454558 0.003109 0.000018 166.657258 9.205598 -161.691300 -47.786906 -0.488666 5.319178 78.200161 0.170452 15.287393 21.454550 -0.003097 -0.000005 12.686007 0.647434 0.220101 15.363025 1.259870 0.524334 15.044858 1.262874 0.516703 -6.620129 2.364907 -0.384232 -29.109491 -9.403709 5.065312 109.106835 -71.183938 71.018196 -17.629490 50.879411 7.329607 -58.916727 -21.506311 2.536527 6.075036 -16.579584 18.738528 136.330521 79.593192 -42.803003 -33.540306 -49.468874 14.840869 -77.261140 15.026761 -2.800740 6.747570 12.277312 -28.747501 
27.524611 93.897781 142.687897 94.941392 3.878477 -32.972045 137.086528 0.147599 169.032197 -60.741501 -2.513770 -7.525052 70.385762 2.012189 -10.901579 21.454557 0.003109 0.000017 171.791306 8.361402 -160.898152 -41.288091 0.339397 4.434669 68.523429 2.638671 16.780597 21.454548 -0.003095 -0.000002 12.284351 0.382322 0.541430 14.559556 0.693408 1.126705 14.241488 0.700064 1.122486 -6.795839 1.867359 -0.920828 -28.349460 -8.427090 3.791441 110.556857 -71.806141 69.502332 -18.953092 52.653703 7.096044 -60.292409 -20.877785 2.545812 6.214930 -14.631619 18.163959 137.921122 79.397800 -41.212153 -32.830527 -50.821969 14.354956 -82.068370 11.922619 -2.790884 6.109187 17.234253 -22.445730 
